<svg xmlns="http://www.w3.org/2000/svg" viewBox="0 0 90 60"><rect width="90" height="60" fill="#DE2910"/><polygon points="15,10 16.8,15.5 22.5,15.5 17.8,19 19.6,24.5 15,21 10.4,24.5 12.2,19 7.5,15.5 13.2,15.5" fill="#FFDE00"/><polygon points="30,4 31,7 34,7 31.5,9 32.5,12 30,10 27.5,12 28.5,9 26,7 29,7" fill="#FFDE00"/><polygon points="36,10 37,13 40,13 37.5,15 38.5,18 36,16 33.5,18 34.5,15 32,13 35,13" fill="#FFDE00"/><polygon points="36,20 37,23 40,23 37.5,25 38.5,28 36,26 33.5,28 34.5,25 32,23 35,23" fill="#FFDE00"/><polygon points="30,26 31,29 34,29 31.5,31 32.5,34 30,32 27.5,34 28.5,31 26,29 29,29" fill="#FFDE00"/></svg>
